HIERARCHY
ROOT Hips
{
	OFFSET 0.000000 97.167313 0.000000
	CHANNELS 6 Xposition Yposition Zposition Xrotation Yrotation Zrotation
	JOINT Spine
	{
		OFFSET 0.000000 13.784798 0.064400
		CHANNELS 3 Xrotation Yrotation Zrotation
		JOINT Spine1
		{
			OFFSET 0.000000 12.037903 0.404700
			CHANNELS 3 Xrotation Yrotation Zrotation
			JOINT Spine2
			{
				OFFSET 0.000000 17.795601 0.420200
				CHANNELS 3 Xrotation Yrotation Zrotation
				JOINT Neck
				{
					OFFSET 0.000000 39.131302 11.954600
					CHANNELS 3 Xrotation Yrotation Zrotation
					JOINT Head
					{
						OFFSET 0.000000 14.456192 15.627699
						CHANNELS 3 Xrotation Yrotation Zrotation
						JOINT HeadTop_End
						{
							OFFSET 0.000000 15.703506 7.603401
							CHANNELS 3 Xrotation Yrotation Zrotation
							End Site
							{
								OFFSET 0.000000 17.447403 0.000000
							}
						}
					}
				}
				JOINT LeftShoulder
				{
					OFFSET 17.399500 24.608795 1.168800
					CHANNELS 3 Xrotation Yrotation Zrotation
					JOINT LeftArm
					{
						OFFSET 18.980635 5.765305 1.818600
						CHANNELS 3 Xrotation Yrotation Zrotation
						JOINT LeftForeArm
						{
							OFFSET 49.290169 0.000000 0.000000
							CHANNELS 3 Xrotation Yrotation Zrotation
							JOINT LeftHand
							{
								OFFSET 31.562012 0.000000 0.000000
								CHANNELS 3 Xrotation Yrotation Zrotation
								JOINT LeftHandThumb1
								{
									OFFSET 6.133995 -4.388519 7.076070
									CHANNELS 3 Xrotation Yrotation Zrotation
									JOINT LeftHandThumb2
									{
										OFFSET 6.037666 -3.485840 3.485847
										CHANNELS 3 Xrotation Yrotation Zrotation
										JOINT LeftHandThumb3
										{
											OFFSET 6.496506 -3.750763 3.750761
											CHANNELS 3 Xrotation Yrotation Zrotation
											JOINT LeftHandThumb4
											{
												OFFSET 5.616882 -3.242905 3.242910
												CHANNELS 3 Xrotation Yrotation Zrotation
												End Site
												{
													OFFSET -1.254608 7.132141 0.375429
												}
											}
										}
									}
								}
								JOINT LeftHandPinky1
								{
									OFFSET 18.920792 -0.453171 -11.426712
									CHANNELS 3 Xrotation Yrotation Zrotation
									JOINT LeftHandPinky2
									{
										OFFSET 4.919586 0.000000 0.000000
										CHANNELS 3 Xrotation Yrotation Zrotation
										JOINT LeftHandPinky3
										{
											OFFSET 5.233047 0.000000 0.000000
											CHANNELS 3 Xrotation Yrotation Zrotation
											JOINT LeftHandPinky4
											{
												OFFSET 5.571716 0.000000 0.000000
												CHANNELS 3 Xrotation Yrotation Zrotation
												End Site
												{
													OFFSET -3.459808 4.342407 -0.466164
												}
											}
										}
									}
								}
								JOINT LeftHandRing1
								{
									OFFSET 22.726120 -0.094986 -6.500475
									CHANNELS 3 Xrotation Yrotation Zrotation
									JOINT LeftHandRing2
									{
										OFFSET 6.408615 0.000000 0.000000
										CHANNELS 3 Xrotation Yrotation Zrotation
										JOINT LeftHandRing3
										{
											OFFSET 6.150223 0.000000 0.000000
											CHANNELS 3 Xrotation Yrotation Zrotation
											JOINT LeftHandRing4
											{
												OFFSET 6.145386 0.000000 0.000000
												CHANNELS 3 Xrotation Yrotation Zrotation
												End Site
												{
													OFFSET -3.671402 4.923981 -0.202372
												}
											}
										}
									}
								}
								JOINT LeftHandMiddle1
								{
									OFFSET 23.373947 0.000000 0.000001
									CHANNELS 3 Xrotation Yrotation Zrotation
									JOINT LeftHandMiddle2
									{
										OFFSET 6.996567 0.000000 0.000000
										CHANNELS 3 Xrotation Yrotation Zrotation
										JOINT LeftHandMiddle3
										{
											OFFSET 7.015945 0.000000 0.000000
											CHANNELS 3 Xrotation Yrotation Zrotation
											JOINT LeftHandMiddle4
											{
												OFFSET 7.721573 0.000000 0.000000
												CHANNELS 3 Xrotation Yrotation Zrotation
												End Site
												{
													OFFSET -4.651108 6.158463 0.251582
												}
											}
										}
									}
								}
								JOINT LeftHandIndex1
								{
									OFFSET 21.310577 -0.490082 6.209344
									CHANNELS 3 Xrotation Yrotation Zrotation
									JOINT LeftHandIndex2
									{
										OFFSET 7.536453 0.000000 0.000000
										CHANNELS 3 Xrotation Yrotation Zrotation
										JOINT LeftHandIndex3
										{
											OFFSET 7.512344 0.000000 0.000000
											CHANNELS 3 Xrotation Yrotation Zrotation
											JOINT LeftHandIndex4
											{
												OFFSET 10.212402 0.000000 0.000001
												CHANNELS 3 Xrotation Yrotation Zrotation
												End Site
												{
													OFFSET -5.180801 8.690506 1.388433
												}
											}
										}
									}
								}
							}
						}
					}
				}
				JOINT RightShoulder
				{
					OFFSET -17.399500 24.608795 1.168800
					CHANNELS 3 Xrotation Yrotation Zrotation
					JOINT RightArm
					{
						OFFSET -18.980635 5.765305 1.818600
						CHANNELS 3 Xrotation Yrotation Zrotation
						JOINT RightForeArm
						{
							OFFSET -49.290169 0.000000 0.000000
							CHANNELS 3 Xrotation Yrotation Zrotation
							JOINT RightHand
							{
								OFFSET -31.562012 0.000000 0.000000
								CHANNELS 3 Xrotation Yrotation Zrotation
								JOINT RightHandThumb1
								{
									OFFSET -6.133995 -4.388519 7.076070
									CHANNELS 3 Xrotation Yrotation Zrotation
									JOINT RightHandThumb2
									{
										OFFSET -6.037666 -3.485840 3.485847
										CHANNELS 3 Xrotation Yrotation Zrotation
										JOINT RightHandThumb3
										{
											OFFSET -6.496506 -3.750763 3.750761
											CHANNELS 3 Xrotation Yrotation Zrotation
											JOINT RightHandThumb4
											{
												OFFSET -5.616882 -3.242905 3.242910
												CHANNELS 3 Xrotation Yrotation Zrotation
												End Site
												{
													OFFSET 1.254608 7.132141 0.375429
												}
											}
										}
									}
								}
								JOINT RightHandIndex1
								{
									OFFSET -21.310577 -0.490082 6.209344
									CHANNELS 3 Xrotation Yrotation Zrotation
									JOINT RightHandIndex2
									{
										OFFSET -7.536453 0.000000 0.000000
										CHANNELS 3 Xrotation Yrotation Zrotation
										JOINT RightHandIndex3
										{
											OFFSET -7.512344 0.000000 0.000000
											CHANNELS 3 Xrotation Yrotation Zrotation
											JOINT RightHandIndex4
											{
												OFFSET -10.212402 0.000000 0.000001
												CHANNELS 3 Xrotation Yrotation Zrotation
												End Site
												{
													OFFSET 5.180801 8.690506 1.388433
												}
											}
										}
									}
								}
								JOINT RightHandMiddle1
								{
									OFFSET -23.373947 0.000000 0.000001
									CHANNELS 3 Xrotation Yrotation Zrotation
									JOINT RightHandMiddle2
									{
										OFFSET -6.996567 0.000000 0.000000
										CHANNELS 3 Xrotation Yrotation Zrotation
										JOINT RightHandMiddle3
										{
											OFFSET -7.015945 0.000000 0.000000
											CHANNELS 3 Xrotation Yrotation Zrotation
											JOINT RightHandMiddle4
											{
												OFFSET -7.721573 0.000000 0.000000
												CHANNELS 3 Xrotation Yrotation Zrotation
												End Site
												{
													OFFSET 4.651108 6.158463 0.251582
												}
											}
										}
									}
								}
								JOINT RightHandRing1
								{
									OFFSET -22.726120 -0.094986 -6.500475
									CHANNELS 3 Xrotation Yrotation Zrotation
									JOINT RightHandRing2
									{
										OFFSET -6.408615 0.000000 0.000000
										CHANNELS 3 Xrotation Yrotation Zrotation
										JOINT RightHandRing3
										{
											OFFSET -6.150223 0.000000 0.000000
											CHANNELS 3 Xrotation Yrotation Zrotation
											JOINT RightHandRing4
											{
												OFFSET -6.145386 0.000000 0.000000
												CHANNELS 3 Xrotation Yrotation Zrotation
												End Site
												{
													OFFSET 3.671402 4.923981 -0.202372
												}
											}
										}
									}
								}
								JOINT RightHandPinky1
								{
									OFFSET -18.920792 -0.453171 -11.426712
									CHANNELS 3 Xrotation Yrotation Zrotation
									JOINT RightHandPinky2
									{
										OFFSET -4.919586 0.000000 0.000000
										CHANNELS 3 Xrotation Yrotation Zrotation
										JOINT RightHandPinky3
										{
											OFFSET -5.233047 0.000000 0.000000
											CHANNELS 3 Xrotation Yrotation Zrotation
											JOINT RightHandPinky4
											{
												OFFSET -5.571716 0.000000 0.000000
												CHANNELS 3 Xrotation Yrotation Zrotation
												End Site
												{
													OFFSET 3.459808 4.342407 -0.466164
												}
											}
										}
									}
								}
							}
						}
					}
				}
			}
		}
	}
	JOINT LeftUpLeg
	{
		OFFSET 19.899099 -7.885101 -3.429500
		CHANNELS 3 Xrotation Yrotation Zrotation
		JOINT LeftLeg
		{
			OFFSET 1.745560 -36.997807 10.304700
			CHANNELS 3 Xrotation Yrotation Zrotation
			JOINT LeftFoot
			{
				OFFSET -1.745558 -29.803308 -13.615400
				CHANNELS 3 Xrotation Yrotation Zrotation
				JOINT LeftToeBase
				{
					OFFSET 1.181900 -18.539904 15.226099
					CHANNELS 3 Xrotation Yrotation Zrotation
					JOINT LeftToe_End
					{
						OFFSET -0.863701 1.402801 16.534700
						CHANNELS 3 Xrotation Yrotation Zrotation
						End Site
						{
							OFFSET 0.000000 16.616566 0.000000
						}
					}
				}
			}
		}
	}
	JOINT RightUpLeg
	{
		OFFSET -19.899099 -7.885101 -3.429500
		CHANNELS 3 Xrotation Yrotation Zrotation
		JOINT RightLeg
		{
			OFFSET -1.745560 -36.997807 10.304700
			CHANNELS 3 Xrotation Yrotation Zrotation
			JOINT RightFoot
			{
				OFFSET 1.745558 -29.803308 -13.615400
				CHANNELS 3 Xrotation Yrotation Zrotation
				JOINT RightToeBase
				{
					OFFSET -1.181900 -18.539904 15.226099
					CHANNELS 3 Xrotation Yrotation Zrotation
					JOINT RightToe_End
					{
						OFFSET 0.863701 1.402801 16.534700
						CHANNELS 3 Xrotation Yrotation Zrotation
						End Site
						{
							OFFSET 0.000000 16.616566 0.000000
						}
					}
				}
			}
		}
	}
}
MOTION
Frames: 4
Frame Time: 0.033333
-50.374847 42.363853 32.765465 196.238698 -7.009297 -138.518299 78.712616 -9.096198 8.403237 10.737330 -3.963616 0.048529 10.744853 -4.115769 0.625414 -0.437094 3.419391 -1.512101 1.476220 30.015847 -24.457026 -0.000000 0.000000 0.000001 2.274053 -40.694366 21.638587 -37.757344 -43.861685 -6.844180 0.000008 -54.927323 0.000002 -19.716012 14.119931 3.304990 1.364445 -8.685722 -5.986650 15.197750 13.979407 11.156154 -1.619288 17.874419 16.847807 0.000000 -0.000000 -0.000002 -10.172696 16.991194 -10.634856 0.468202 2.296813 -23.041025 0.196682 1.506746 -14.873106 0.000000 0.000000 -0.000002 -0.022517 2.227155 -8.623524 0.625723 2.636278 -26.699691 0.300060 1.852523 -18.398424 -0.000002 0.000001 0.000003 -0.086391 -3.551484 -1.750766 0.795595 2.949521 -30.184993 0.214098 1.570819 -15.521562 0.000001 -0.000000 0.000001 5.391175 -9.782761 -1.950344 0.260670 1.729700 -17.138521 0.002785 0.180914 -1.765756 -0.000002 0.000003 -0.000003 -2.004537 31.089498 22.942310 -48.618594 7.586356 24.689122 0.000005 30.271853 -0.000002 -27.585749 7.360825 -81.202125 -19.145575 22.566614 -3.538909 -4.263708 -13.921038 -7.812501 -10.296363 -5.212723 -7.107088 -0.000000 0.000000 0.000002 5.047705 12.372053 -6.256653 0.000003 -0.000001 0.000001 0.036452 0.582224 -7.166034 -0.000001 -0.000003 -0.000001 0.287065 -0.347019 -8.520565 0.000005 -0.005072 0.062242 0.158024 1.204126 -14.952696 -0.000000 0.000001 -0.000008 -1.489860 -7.380048 -15.359161 0.020895 -0.441149 5.423609 0.000876 -0.090373 1.109473 0.000000 0.000001 -0.000003 -7.775162 -17.080934 -15.044275 -0.000000 0.000002 -0.000004 0.008021 0.273398 -3.358095 -0.000001 -0.000003 0.000003 -27.189026 8.627302 11.995162 82.782794 -11.250355 -4.508078 -34.316411 -7.532180 -25.254804 -5.892436 -0.000007 0.000003 -0.000000 0.000003 0.000001 -71.193486 -45.666283 40.836618 124.709692 -34.447974 -14.405823 43.657148 -2.164891 23.618680 -6.362177 -0.000006 0.000002 0.000001 0.000002 0.000000 
-47.275528 41.698463 32.525936 206.246004 -15.004138 -132.254210 78.771636 -7.224882 10.730905 10.760698 -4.591844 0.741548 10.738736 -4.862092 1.489241 0.300074 3.888214 -2.226441 5.326952 31.438514 -27.339697 -0.000000 0.000001 0.000000 13.276687 -41.683821 32.856246 -53.346243 -35.478991 -5.358107 0.000013 -58.947401 0.000018 -23.193632 7.808467 10.817544 1.339894 -8.703437 -5.970007 15.196893 13.945135 11.167736 -1.612479 17.835997 16.844006 0.000001 -0.000001 -0.000002 -10.440075 17.726248 -14.463632 0.470704 2.302670 -23.103310 0.198219 1.512516 -14.931512 -0.000000 0.000002 -0.000002 0.334993 4.306558 -11.098793 0.536902 2.451908 -24.698835 0.244863 1.677633 -16.607335 0.000001 0.000001 0.000002 0.010842 -4.046264 -0.804502 0.701141 2.781017 -28.295491 0.170374 1.404051 -13.838183 0.000004 0.000002 0.000004 5.376513 -10.097285 1.377747 0.170878 1.406058 -13.858077 0.002045 -0.154645 1.509259 -0.000001 -0.000000 -0.000001 -2.699032 30.832519 24.816558 -43.816104 3.265534 24.673795 0.000006 27.031502 -0.000015 -36.760857 11.333934 -81.083027 -19.147363 22.566301 -3.537226 -4.263674 -13.922282 -7.812417 -10.297929 -5.215179 -7.107110 -0.000000 0.000000 -0.000000 5.047709 12.372051 -6.256660 0.000000 0.000003 0.000008 0.036489 0.582494 -7.169381 0.000000 -0.000002 -0.000003 0.287067 -0.347021 -8.520576 0.000004 -0.005069 0.062242 0.158025 1.204126 -14.952688 0.000002 0.000000 -0.000004 -1.489860 -7.380048 -15.359166 0.020897 -0.441151 5.423606 0.000881 -0.090610 1.112373 0.000000 0.000001 -0.000003 -7.775159 -17.080935 -15.044282 0.000003 -0.000035 0.000412 0.008012 0.273351 -3.357562 0.000000 -0.000002 0.000005 -32.005700 6.705549 14.389052 75.768627 -10.805038 -5.078203 -16.248772 -13.984251 -29.797564 -6.052910 0.000004 -0.000005 0.000000 0.000000 -0.000000 -109.132148 -41.929841 21.958693 126.539855 -36.270326 -14.810664 69.871995 -9.796895 -0.236975 -21.750181 8.096426 -24.298085 0.000002 -0.000001 -0.000000 
-44.137474 40.022282 32.442982 216.266424 -21.173846 -124.658466 78.553131 -5.840457 12.526122 10.806220 -5.142114 1.355389 10.751387 -5.484650 2.239563 0.862489 4.312218 -2.764392 8.671758 33.652301 -30.541874 -0.000003 0.000001 0.000001 22.210621 -42.746333 37.999665 -66.449018 -20.753772 1.443505 0.000028 -62.399973 0.000019 -24.677149 4.178728 11.981158 1.236934 -8.773304 -5.904929 15.194693 13.807530 11.213501 -1.577228 17.679081 16.834680 -0.000002 -0.000002 0.000002 -10.573209 18.657222 -18.710306 0.478615 2.321123 -23.299575 0.204102 1.534298 -15.151829 -0.000003 -0.000002 -0.000001 0.919916 6.498035 -13.906667 0.450559 2.254883 -22.596530 0.194239 1.497496 -14.779800 -0.000003 -0.000005 0.000003 0.097640 -4.526258 -0.069975 0.609419 2.603629 -26.342896 0.132644 1.240895 -12.202985 0.000001 -0.000001 0.000004 5.385402 -10.433434 4.655742 0.103264 1.096280 -10.762303 0.018843 -0.469997 4.591458 -0.000002 -0.000000 0.000001 -2.886573 30.571640 25.394502 -38.825107 -3.443633 25.676378 -0.000001 29.976853 0.000008 -51.147988 13.740244 -76.909808 -19.066444 22.512751 -3.490172 -4.262999 -13.871854 -7.781289 -10.310871 -5.213264 -7.129839 0.000004 -0.000001 -0.000001 5.093210 12.375382 -8.411841 0.000001 -0.000002 0.000003 0.036619 0.583509 -7.181939 0.000000 -0.000001 -0.000001 0.345021 -0.287380 -10.781278 0.000001 -0.004279 0.052518 0.158026 1.204127 -14.952703 -0.000000 0.000000 -0.000001 -1.729063 -7.248292 -17.685621 0.021007 -0.442295 5.437754 0.000888 -0.091106 1.118440 -0.000001 -0.000000 -0.000003 -7.905036 -16.862970 -17.439785 -0.000003 -0.000852 0.010542 0.007958 0.272432 -3.346229 -0.000003 0.000000 0.000000 -37.732205 6.300802 14.017504 70.712778 -8.362904 -4.620168 1.104379 -19.484412 -27.462847 -7.358999 0.000011 0.000005 0.000000 0.000003 0.000000 -131.573923 -33.285995 7.003393 127.903475 -33.034254 -11.923957 78.241702 -18.003501 -27.546629 -25.759237 5.297471 -13.264230 0.000001 -0.000001 -0.000000 
-42.038414 37.974701 31.482445 225.920391 -26.036323 -116.091824 77.980475 -5.448877 13.636641 10.867386 -5.456357 1.767890 10.786874 -5.815012 2.720320 1.292510 4.628139 -3.084392 11.846602 36.122005 -34.093675 0.000001 0.000001 0.000002 25.901324 -44.097945 35.865173 -71.239754 -4.817031 12.202609 0.000054 -61.909504 0.000043 -24.472551 -0.835611 15.408956 0.869476 -9.022924 -5.675230 15.189487 13.320731 11.375083 -1.456117 17.123899 16.804613 -0.000003 0.000001 -0.000002 -10.156659 19.021098 -20.275468 0.505018 2.381416 -23.942789 0.224601 1.608151 -15.900375 -0.000001 -0.000001 -0.000008 1.133764 7.068973 -15.056517 0.434302 2.215450 -22.179584 0.190444 1.483083 -14.634268 -0.000000 -0.000000 0.000005 -0.004520 -4.474001 -0.925588 0.597871 2.580222 -26.087660 0.137346 1.262398 -12.417989 0.000000 0.000001 0.000001 5.326182 -10.382145 4.750094 0.113675 1.149681 -11.293473 0.014428 -0.411296 4.016845 -0.000002 0.000003 0.000001 -2.922269 30.105910 25.653492 -33.077332 -7.483197 27.228713 -0.000004 30.104291 -0.000006 -71.229557 16.468604 -65.725285 -18.698917 22.282941 -3.292663 -4.260707 -13.649943 -7.644357 -10.362704 -5.195961 -7.229246 0.000001 0.000002 0.000003 5.330440 12.597006 -17.904328 -0.000000 0.000003 0.000002 0.036999 0.586542 -7.219468 -0.000000 0.000000 0.000001 0.574571 -0.037974 -20.730150 -0.000004 -0.000788 0.009721 0.158026 1.204123 -14.952700 -0.000001 0.000000 -0.000008 -2.765314 -6.534545 -27.905587 0.021490 -0.447343 5.500052 0.000920 -0.092582 1.136584 -0.000001 0.000001 -0.000007 -8.554260 -16.066053 -27.986268 0.000004 -0.003326 0.040897 0.007725 0.268372 -3.296322 0.000001 0.000003 -0.000001 -41.844693 6.027647 13.467404 67.176816 -8.457082 -5.203529 11.855604 -19.089120 -24.155574 -8.223865 0.000008 0.000004 -0.000000 0.000000 0.000000 -125.271352 -16.762647 7.919828 131.736468 -16.526408 -4.270311 78.494740 -10.273819 -25.726198 -32.203362 2.084543 -4.417603 -0.000000 -0.000000 -0.000000 
